<svg xmlns="http://www.w3.org/2000/svg" viewBox="1490 55.362 39.333 39.493">
  <defs>
    <style>
      .cls-1 {
        fill: #7bc1b0;
      }

      .cls-2 {
        fill: #fff;
      }
    </style>
  </defs>
  <g id="Group_6" data-name="Group 6" transform="translate(1490 55.362)">
    <path id="Path_131" data-name="Path 131" class="cls-1" d="M30.734,0H8.6A8.563,8.563,0,0,0,0,8.6V30.734a8.563,8.563,0,0,0,8.6,8.6H30.734a8.563,8.563,0,0,0,8.6-8.6V8.6A8.563,8.563,0,0,0,30.734,0Z"/>
    <g id="Group_67" data-name="Group 67" transform="translate(18.632 11.147)">
      <path id="Path_132" data-name="Path 132" class="cls-2" d="M22.529,7.159a3.109,3.109,0,0,1,1.115.159v4.459a7.312,7.312,0,0,1-1.592-.159,1.238,1.238,0,0,0-1.433.478,1.446,1.446,0,0,0-.478,1.115v1.752h3.5v3.822h-3.5V35.345H14.726V18.625H11.7V14.8h3.026V13.529c0-2.229.318-3.663,1.115-4.618C16.637,7.637,18.548,7,21.414,7A3.109,3.109,0,0,0,22.529,7.159Z" transform="translate(-11.7 -7)"/>
    </g>
  </g>
</svg>
