<svg xmlns="http://www.w3.org/2000/svg" viewBox="1552.571 55.362 39.333 39.333">
  <defs>
    <style>
      .cls-1 {
        fill: #7bc1b0;
      }

      .cls-2 {
        fill: #fff;
      }
    </style>
  </defs>
  <g id="Group_7" data-name="Group 7" transform="translate(1552.571 55.362)">
    <path id="Path_133" data-name="Path 133" class="cls-1" d="M110.234,0H88.1a8.563,8.563,0,0,0-8.6,8.6V30.734a8.563,8.563,0,0,0,8.6,8.6h22.135a8.563,8.563,0,0,0,8.6-8.6V8.6A8.563,8.563,0,0,0,110.234,0Z" transform="translate(-79.5)"/>
    <path id="Path_134" data-name="Path 134" class="cls-2" d="M105.735,30.375H87.74a4.216,4.216,0,0,1-4.14-4.14V8.24A4.216,4.216,0,0,1,87.74,4.1h17.995a4.216,4.216,0,0,1,4.14,4.14V26.235A4.216,4.216,0,0,1,105.735,30.375ZM87.74,5.692A2.515,2.515,0,0,0,85.192,8.24V26.235a2.515,2.515,0,0,0,2.548,2.548h17.995a2.515,2.515,0,0,0,2.548-2.548V8.24a2.515,2.515,0,0,0-2.548-2.548Z" transform="translate(-77.071 2.429)"/>
    <path id="Path_135" data-name="Path 135" class="cls-2" d="M93.814,19.669a5.335,5.335,0,1,1,5.414-5.255A5.238,5.238,0,0,1,93.814,19.669Zm0-9.077a3.822,3.822,0,1,0,3.822,3.822A3.772,3.772,0,0,0,93.814,10.592Z" transform="translate(-74.227 5.332)"/>
    <path id="Path_136" data-name="Path 136" class="cls-2" d="M96.892,9.985A1.6,1.6,0,0,1,95.3,8.392,1.5,1.5,0,0,1,96.892,6.8a1.6,1.6,0,0,1,1.592,1.592A1.5,1.5,0,0,1,96.892,9.985Zm0-1.592h0c0,.159.159.159,0,0Z" transform="translate(-70.139 4.029)"/>
  </g>
</svg>
