<svg id="Group_83" data-name="Group 83" xmlns="http://www.w3.org/2000/svg" viewBox="261.398 54.7 176.626 40.154">
  <defs>
    <style>
      .cls-1 {
        fill: #7bc1b0;
      }
    </style>
  </defs>
  <g id="Group_4" data-name="Group 4" transform="translate(309.597 54.7)">
    <path id="Path_2" data-name="Path 2" class="cls-1" d="M33.1,35.111a12.426,12.426,0,0,0-3.047-5.006A5.336,5.336,0,0,0,26.567,28.8,10.523,10.523,0,0,0,22,29.888C16.773,32.065,7.632,39.029,7.632,47.082c0,5.876,8.053,9.141,12.405,12.405a1.525,1.525,0,0,1,0,2.394,4.255,4.255,0,0,1-3.047.871c-3.482,0-7.182-2.829-9.576-4.788a6.831,6.831,0,0,0-4.57-1.523,4.243,4.243,0,0,0-1.741.218c-1.088.218-1.523.871-.653,1.959,4.57,5.223,10.229,7.617,14.582,7.617a10.431,10.431,0,0,0,7.835-3.047A7.261,7.261,0,0,0,25.043,58.4,4.077,4.077,0,0,0,23.3,55.352c-2.176-1.741-10.229-5.006-10.229-8.923.218-6.747,13.058-15.452,15.235-13.711.871.653-.871,3.265-2.176,5.441-1.959,2.612-2.612,4.788-2.612,6.094a5.5,5.5,0,0,0,1.306,3.265c1.088,1.088,1.741.653,2.394-.218.871-1.306,2.612-4.353,3.917-6.311C32.225,39.682,33.749,37.506,33.1,35.111Z" transform="translate(0.013 -26.297)"/>
    <path id="Path_3" data-name="Path 3" class="cls-1" d="M112.307,57.14c-.435-1.523-1.306-1.306-1.959,0-1.741,3.482-4.788,7.4-6.964,7.4-1.741,0-3.265-3.265-3.482-7.617a20.711,20.711,0,0,0,7.835-4.57A5.393,5.393,0,0,0,109.7,48a6.025,6.025,0,0,0-.653-2.829c-1.306-2.612-2.829-3.7-5.441-2.612a19.9,19.9,0,0,0-3.047,1.523c3.482-6.311,6.094-10.882,6.094-13.058A4.961,4.961,0,0,0,106,28.629q-.979-1.959-2.612,0c-4.57,6.311-11.97,20.24-15.235,28.511-2.394,3.482-6.311,7.835-10.664,7.835-1.523,0-2.612-1.741-2.612-4.135a17.226,17.226,0,0,1,1.741-6.529c2.394-4.788,6.094-8.488,6.964-8.053.218.218-.218,1.306-.653,2.394-1.088,2.394-1.306,3.482-1.306,4.353a4.256,4.256,0,0,0,1.959,3.265c1.088.653,1.741.435,2.176-.653a21.206,21.206,0,0,1,1.088-2.394c1.088-2.394,1.959-4.353,1.088-6.311a7.421,7.421,0,0,0-5.659-3.7c-3.482,0-8.053,3.265-11.1,9.141a13.709,13.709,0,0,0-1.741,6.094c-1.959,3.265-4.57,6.529-6.311,6.529-.871,0-1.088-.653-1.088-1.741,0-2.394,2.176-6.311,3.917-8.923,1.959-3.482,3.265-5.876,3.265-8.053a4.605,4.605,0,0,0-.871-3.047c-.653-1.088-1.741-.871-2.394.435-2.176,2.612-3.7,6.747-7.182,12.405-3.047,4.788-6.094,8.706-7.617,8.706-1.306,0-1.088-2.176,0-4.57,1.959-4.57,6.311-11.317,6.311-13.711a3.8,3.8,0,0,0-.871-2.612,1.526,1.526,0,0,0-2.612,0,60.28,60.28,0,0,0-7.617,13.929c-1.741,4.135-5.006,7.4-6.964,7.4-.871,0-1.306-1.088-1.306-2.612a5.521,5.521,0,0,1,.435-2.612c1.088-3.047,3.917-6.964,6.529-9.794a4.052,4.052,0,0,0,.871-2.394,7.247,7.247,0,0,0-1.741-3.917c-.653-.871-1.306-.653-2.394,0a11.635,11.635,0,0,1-5.006,2.394,13.1,13.1,0,0,0,1.306-5.006c0-1.306-.435-1.959-1.959-1.959-1.959,0-5.659,4.57-5.659,7.617A2.842,2.842,0,0,0,32,49.523c-3.482,8.705-9.141,15.452-12.405,15.452-1.088,0-1.741-1.088-1.741-2.829a11.622,11.622,0,0,1,1.088-4.353,123.039,123.039,0,0,1,6.529-11.97l1.306-1.959H30.04c1.088,0,1.959-.435,1.306-1.306a3.849,3.849,0,0,0-2.829-2.176,12.693,12.693,0,0,0,1.088-4.353,9.578,9.578,0,0,0-.435-2.176c-.435-1.306-1.523-1.523-2.394,0a75.5,75.5,0,0,1-4.788,6.964,10.384,10.384,0,0,1-3.7,0c-1.523,0-1.959.653-1.306,1.741A6.371,6.371,0,0,0,20.464,44.3c-2.176,4.135-4.57,8.923-5.876,11.752A16.2,16.2,0,0,0,13.5,60.84c0,4.135,2.612,6.529,5.876,6.529,6.311,0,12.405-8.705,16.323-17.193a13.755,13.755,0,0,0,4.57-1.088c-2.176,2.612-4.788,6.311-5.876,9.358a9.647,9.647,0,0,0-.653,3.265A5.769,5.769,0,0,0,39.617,67.8a10.751,10.751,0,0,0,6.529-2.612,3.623,3.623,0,0,0,3.7,2.394c3.047,0,5.659-1.741,7.617-4.135C57.68,66.063,59.422,67.8,62.9,67.8c2.829,0,5.659-1.741,7.617-4.135a7.423,7.423,0,0,0,7.4,3.917,14.352,14.352,0,0,0,8.706-3.265,3.48,3.48,0,0,0,.871,2.394,1.059,1.059,0,0,0,1.959-.218c1.959-4.353,3.482-8.053,5.006-10.882,0,8.27,3.482,11.535,7.835,11.752,5.006,0,8.053-4.135,9.141-6.311C112.525,59.316,112.743,58.01,112.307,57.14ZM95.332,54.093a24.052,24.052,0,0,1,5.441-6.529c2.612-1.959,4.788-2.829,5.223-1.959s-.435,2.612-2.829,4.57A29.265,29.265,0,0,1,95.332,54.093Z" transform="translate(15.909 -27.65)"/>
  </g>
  <path id="Path_4" data-name="Path 4" class="cls-1" d="M57.774,18.6a13.772,13.772,0,0,1-3.388,5c-.968.968-1.936,1.775-2.9,2.743l.968.807a1.078,1.078,0,0,1-.323,1.775L45.35,30.862c-.645.161-1.452-.484-1.291-1.129l1.129-6.938A1.008,1.008,0,0,1,46.8,22.15l1.129.968a28.091,28.091,0,0,0,2.259-1.936,13.807,13.807,0,0,0,3.227-4.518A8.817,8.817,0,0,0,53.9,9.726a7.138,7.138,0,0,0-4.679-4.679c-3.227-1.129-5.808-.484-8.228,2.1,0,.161-.161.323-.161.484-.161.161-.161.323-.323.484l-.161.323a2.229,2.229,0,0,1-1.775.968A2.311,2.311,0,0,1,36.8,8.6l-.484-.484a7.255,7.255,0,0,0-7.1-3.227,7.718,7.718,0,0,0-6.776,6.131c0,.323,0,.484-.161.645v2.1c0,.323.161.645.161,1.129a11.766,11.766,0,0,0,2.743,5.486c1.452,1.613,3.065,3.065,4.679,4.679l.484.484a57.55,57.55,0,0,1,7.1,6.938l.807-.807a1.078,1.078,0,0,1,1.775.323l1.936,6.776a1.014,1.014,0,0,1-1.129,1.291l-2.743-.484h-.323L33.9,38.768a1.008,1.008,0,0,1-.645-1.613l1.129-1.291c-.161-.161-4.517-4.84-6.938-6.938l-.484-.484a53.36,53.36,0,0,1-5.324-5.163A15.21,15.21,0,0,1,17.923,15.7c0-.323-.161-.807-.161-1.129l-.161-.484V10.856c0-.323.161-.484.161-.807a12.5,12.5,0,0,1,10.971-10,11.929,11.929,0,0,1,9.519,3.227A11.8,11.8,0,0,1,50.675.691a11.959,11.959,0,0,1,7.583,7.422A13.234,13.234,0,0,1,57.774,18.6Z" transform="translate(243.798 54.775)"/>
</svg>
