<svg xmlns="http://www.w3.org/2000/svg" viewBox="1615.791 55.362 39.333 39.333">
  <defs>
    <style>
      .cls-1 {
        fill: #7bc1b0;
      }

      .cls-2 {
        fill: #fff;
      }
    </style>
  </defs>
  <g id="Group_8" data-name="Group 8" transform="translate(1615.791 55.362)">
    <path id="Path_140" data-name="Path 140" class="cls-1" d="M149.934,0H127.8a8.563,8.563,0,0,0-8.6,8.6V30.734a8.563,8.563,0,0,0,8.6,8.6h22.135a8.563,8.563,0,0,0,8.6-8.6V8.6A8.563,8.563,0,0,0,149.934,0Z" transform="translate(-119.2)"/>
    <g id="_x36_llo3B.tif_1_" transform="translate(9.395 11.337)">
      <g id="Group_72" data-name="Group 72">
        <path id="Path_141" data-name="Path 141" class="cls-2" d="M145.643,9.159a7.794,7.794,0,0,1-1.911,2.07c-.159.159-.159.159-.159.318a12.42,12.42,0,0,1-.478,3.5,11.312,11.312,0,0,1-1.274,2.866,17.38,17.38,0,0,1-2.07,2.707,9.139,9.139,0,0,1-3.663,2.389,9.446,9.446,0,0,1-3.663.8,25.8,25.8,0,0,1-3.5-.159,14.391,14.391,0,0,1-3.344-1.274c-.159-.159-.318-.159-.478-.318h0a8.874,8.874,0,0,0,6.211-1.752,4.414,4.414,0,0,1-3.981-3.026,3.882,3.882,0,0,0,1.911,0,4.4,4.4,0,0,1-3.344-4.14,2.263,2.263,0,0,0,.955.318,2.02,2.02,0,0,0,.955.159,4.648,4.648,0,0,1-1.752-2.548,4.9,4.9,0,0,1,.478-3.026,12.4,12.4,0,0,0,8.758,4.459v-.8a4.77,4.77,0,0,1,.955-2.866,4.892,4.892,0,0,1,2.389-1.592,4.414,4.414,0,0,1,3.185.478c.318.159.478.478.8.637,0,0,.159.159.159,0a7.508,7.508,0,0,0,2.389-.955h.159a3.2,3.2,0,0,1-.637,1.274,6.926,6.926,0,0,1-1.115.955A9.724,9.724,0,0,0,145.643,9.159Z" transform="translate(-125.1 -7.119)"/>
      </g>
    </g>
  </g>
</svg>
